<svg id="customer-review" xmlns="http://www.w3.org/2000/svg" width="62.3" height="62.3" viewBox="0 0 62.3 62.3">
  <circle id="Ellipse_2" data-name="Ellipse 2" cx="29.811" cy="29.811" r="29.811" transform="translate(1.1 2.677)" fill="#5dc1d8"/>
  <path id="Path_412" data-name="Path 412" d="M377.376,191.8H360.027a.61.61,0,0,0-.608.608V201a3.388,3.388,0,0,1,.777,5.018h4.685a.61.61,0,0,1,.608.608v3.389c0,.335.191.412.424.172l3.629-3.733a1.656,1.656,0,0,1,1.032-.436h6.8a.61.61,0,0,0,.608-.608v-13A.61.61,0,0,0,377.376,191.8Z" transform="translate(-315.685 -168.466)" fill="#f87eab"/>
  <path id="Path_413" data-name="Path 413" d="M361.833,205.413v-13a.61.61,0,0,1,.608-.608h-2.414a.61.61,0,0,0-.608.608V201a3.388,3.388,0,0,1,.777,5.018h2.246A.61.61,0,0,1,361.833,205.413Z" transform="translate(-315.685 -168.466)" fill="#e26693"/>
  <path id="Path_414" data-name="Path 414" d="M382.37,227.466a9.66,9.66,0,0,1-7.324-3.362.272.272,0,0,1,0-.355,9.658,9.658,0,0,1,14.647,0,.272.272,0,0,1,0,.355A9.659,9.659,0,0,1,382.37,227.466Z" transform="translate(-329.353 -193.571)" fill="#fff"/>
  <path id="Path_415" data-name="Path 415" d="M376.811,224.1a.272.272,0,0,1,0-.355,9.662,9.662,0,0,1,6.44-3.321c-.292-.027-.585-.041-.881-.041a9.66,9.66,0,0,0-7.324,3.362.272.272,0,0,0,0,.355,9.66,9.66,0,0,0,7.324,3.362c.3,0,.589-.014.881-.041A9.662,9.662,0,0,1,376.811,224.1Z" transform="translate(-329.353 -193.571)" fill="#d9eafc"/>
  <path id="Path_416" data-name="Path 416" d="M418.214,229.168a2.813,2.813,0,1,1-2.813-2.813A2.813,2.813,0,0,1,418.214,229.168Z" transform="translate(-362.384 -198.812)" fill="#aec1ed"/>
  <path id="Path_417" data-name="Path 417" d="M422.92,234.914a1.769,1.769,0,0,0-1.511,2.693.661.661,0,1,1,1.016.778,1.771,1.771,0,1,0,.5-3.472Z" transform="translate(-369.903 -206.33)" fill="#1a2b63"/>
  <path id="Path_418" data-name="Path 418" d="M424.181,254.4a.661.661,0,1,1-.661-.661A.661.661,0,0,1,424.181,254.4Z" transform="translate(-371.406 -222.867)" fill="#fff"/>
  <path id="Path_419" data-name="Path 419" d="M37.653,134.893a7.487,7.487,0,0,1,3.31-6.211v-2.123a.61.61,0,0,0-.608-.608H20.45a.61.61,0,0,0-.608.608v13a.61.61,0,0,0,.608.608h7.906a1.832,1.832,0,0,1,1.06.408l4.191,3.79c.248.225.451.134.451-.2v-3.389a.61.61,0,0,1,.608-.608h2.986v-5.273Z" transform="translate(-17.428 -110.625)" fill="#445ea0"/>
  <path id="Path_420" data-name="Path 420" d="M105.039.608A.61.61,0,0,1,105.647,0h20.209a.61.61,0,0,1,.608.608V12.63a.61.61,0,0,1-.608.608h-5.788a.61.61,0,0,0-.608.608V15.97c0,.335-.23.46-.511.278L114.8,13.568a2.433,2.433,0,0,0-1.119-.33h-8.037a.61.61,0,0,1-.608-.608V.608Z" transform="translate(-92.258)" fill="#fe3745"/>
  <path id="Path_421" data-name="Path 421" d="M107.453,12.63V.608A.61.61,0,0,1,108.062,0h-2.414a.61.61,0,0,0-.608.608V12.63a.61.61,0,0,0,.608.608h2.414A.61.61,0,0,1,107.453,12.63Z" transform="translate(-92.258)" fill="#b7092b"/>
  <g id="Group_204" data-name="Group 204" transform="translate(14.573 3.089)">
    <path id="Path_422" data-name="Path 422" d="M122.753,26.086c.155-.314.409-.314.564,0l.542,1.1a1.361,1.361,0,0,0,.912.663l1.212.176c.347.05.425.292.174.536l-.877.855a1.361,1.361,0,0,0-.349,1.073l.207,1.207c.059.345-.146.495-.456.332l-1.084-.57a1.362,1.362,0,0,0-1.128,0l-1.084.57c-.31.163-.516.014-.456-.332l.207-1.207a1.362,1.362,0,0,0-.349-1.073l-.877-.855c-.251-.245-.172-.486.174-.536l1.212-.176a1.361,1.361,0,0,0,.913-.663Z" transform="translate(-119.765 -25.794)" fill="#ffaf10"/>
    <path id="Path_423" data-name="Path 423" d="M190.647,27.209H182.5a.913.913,0,1,1,0-1.825h8.143a.913.913,0,1,1,0,1.825Z" transform="translate(-174.069 -25.384)" fill="#ffaf10"/>
    <path id="Path_424" data-name="Path 424" d="M190.647,47.18H182.5a.913.913,0,1,1,0-1.825h8.143a.913.913,0,1,1,0,1.825Z" transform="translate(-174.069 -42.925)" fill="#ffaf10"/>
    <path id="Path_425" data-name="Path 425" d="M186.592,67.15H182.5a.913.913,0,1,1,0-1.825h4.087a.913.913,0,0,1,0,1.825Z" transform="translate(-174.069 -60.465)" fill="#ffaf10"/>
  </g>
  <path id="Path_426" data-name="Path 426" d="M140.219,397.3h-6.913l.184.664a.918.918,0,0,1-.261.852l-3.77,3.221a.525.525,0,0,1-.71-.037l-2.461-2.6a.691.691,0,0,0-1.01,0l-2.461,2.6a.525.525,0,0,1-.71.037l-3.77-3.221a.92.92,0,0,1-.261-.852l.183-.664h-6.913a3.335,3.335,0,0,0-3.332,3.332v4.753a29.816,29.816,0,0,0,35.537,0v-4.753A3.335,3.335,0,0,0,140.219,397.3Z" transform="translate(-94.871 -348.954)" fill="#293d7c"/>
  <path id="Path_427" data-name="Path 427" d="M110.428,400.628a3.335,3.335,0,0,1,3.332-3.332h-2.414a3.335,3.335,0,0,0-3.332,3.332v4.753q1.165.866,2.414,1.619v-6.372Z" transform="translate(-94.871 -348.954)" fill="#1a2b63"/>
  <path id="Path_428" data-name="Path 428" d="M245.843,440.293a1.137,1.137,0,1,1,.8-.333A1.141,1.141,0,0,1,245.843,440.293Z" transform="translate(-214.931 -384.723)" fill="#fff"/>
  <path id="Path_429" data-name="Path 429" d="M245.9,439.959a1.134,1.134,0,0,1,0-1.605,1.129,1.129,0,0,1,.373-.248,1.136,1.136,0,1,0,0,2.1A1.129,1.129,0,0,1,245.9,439.959Z" transform="translate(-214.931 -384.722)" fill="#d9eafc"/>
  <path id="Path_430" data-name="Path 430" d="M245.843,478.028a1.137,1.137,0,1,1,.8-.333A1.139,1.139,0,0,1,245.843,478.028Z" transform="translate(-214.931 -417.867)" fill="#fff"/>
  <path id="Path_431" data-name="Path 431" d="M245.9,477.693a1.134,1.134,0,0,1,0-1.605,1.127,1.127,0,0,1,.373-.248,1.136,1.136,0,1,0,0,2.1A1.13,1.13,0,0,1,245.9,477.693Z" transform="translate(-214.931 -417.866)" fill="#d9eafc"/>
  <path id="Path_432" data-name="Path 432" d="M204.084,369.712a10.63,10.63,0,0,1-13.445,0l-1.1,3.988a1.041,1.041,0,0,0,.3.977l3.77,3.221a.647.647,0,0,0,.877-.046l2.461-2.6a.57.57,0,0,1,.833,0l2.461,2.6a.647.647,0,0,0,.877.046l3.77-3.221a1.04,1.04,0,0,0,.3-.977Z" transform="translate(-166.45 -324.726)" fill="#fff"/>
  <path id="Path_433" data-name="Path 433" d="M192.251,374.678a1.041,1.041,0,0,1-.3-.977l.739-2.675a10.7,10.7,0,0,1-2.052-1.313l-1.1,3.988a1.041,1.041,0,0,0,.3.977l3.77,3.221a.647.647,0,0,0,.877-.046l.664-.7Z" transform="translate(-166.45 -324.727)" fill="#d9eafc"/>
  <path id="Path_434" data-name="Path 434" d="M277.645,157.153a5.916,5.916,0,0,0-2.278.454,7.452,7.452,0,0,1,1.35,2.545c4.018.741,6.863,2.863,6.863,7.44v-4.5A5.935,5.935,0,0,0,277.645,157.153Z" transform="translate(-241.861 -138.031)" fill="#ff9518"/>
  <path id="Path_435" data-name="Path 435" d="M176.027,142.041a21.6,21.6,0,0,1,4.111.355,7.609,7.609,0,0,0-14.919,2.115V149.8C165.219,143.835,170.058,142.041,176.027,142.041Z" transform="translate(-145.115 -120.243)" fill="#ffaf10"/>
  <path id="Path_436" data-name="Path 436" d="M167.367,144.436a7.61,7.61,0,0,1,6.539-7.459,7.612,7.612,0,0,0-8.687,7.534V149.8A6.814,6.814,0,0,1,167.367,144.436Z" transform="translate(-145.115 -120.243)" fill="#ff9518"/>
  <path id="Path_437" data-name="Path 437" d="M138.7,266.8v-4.851h-.331a3.516,3.516,0,1,0,0,7.032h.555A10.665,10.665,0,0,1,138.7,266.8Z" transform="translate(-118.442 -230.077)" fill="#ffdd8d"/>
  <path id="Path_438" data-name="Path 438" d="M136.139,265.467a3.517,3.517,0,0,1,2.559-3.383v-.133h-.331a3.516,3.516,0,1,0,0,7.032h.555c-.005-.027-.009-.054-.014-.08A3.517,3.517,0,0,1,136.139,265.467Z" transform="translate(-118.443 -230.077)" fill="#ff9f60"/>
  <path id="Path_439" data-name="Path 439" d="M340.325,261.951h-.331V266.8a10.664,10.664,0,0,1-.225,2.18h.556a3.516,3.516,0,1,0,0-7.032Z" transform="translate(-298.426 -230.077)" fill="#ffc987"/>
  <path id="Path_440" data-name="Path 440" d="M186.835,193.194A10.808,10.808,0,0,1,176.027,204h0a10.808,10.808,0,0,1-10.808-10.808v-7.286c0-5.969,4.839-7.763,10.808-7.763h0c5.969,0,10.808,1.794,10.808,7.763Z" transform="translate(-145.115 -156.469)" fill="#ffe2b8"/>
  <path id="Path_441" data-name="Path 441" d="M167.365,193.194v-7.286c0-5.607,4.269-7.529,9.735-7.742q-.529-.02-1.073-.021c-5.969,0-10.808,1.794-10.808,7.763v7.286A10.808,10.808,0,0,0,176.027,204c.362,0,.72-.018,1.073-.053A10.808,10.808,0,0,1,167.365,193.194Z" transform="translate(-145.115 -156.469)" fill="#ffc987"/>
  <g id="Group_205" data-name="Group 205" transform="translate(24.627 30.328)">
    <path id="Path_442" data-name="Path 442" d="M203.529,253.49a1.136,1.136,0,0,1-1.136-1.136v-1.969a1.136,1.136,0,0,1,2.272,0v1.969A1.136,1.136,0,0,1,203.529,253.49Z" transform="translate(-202.393 -249.25)" fill="#ff9518"/>
    <path id="Path_443" data-name="Path 443" d="M288.157,253.49a1.136,1.136,0,0,1-1.136-1.136v-1.969a1.136,1.136,0,0,1,2.272,0v1.969A1.136,1.136,0,0,1,288.157,253.49Z" transform="translate(-276.724 -249.25)" fill="#ff9518"/>
    <path id="Path_444" data-name="Path 444" d="M239.722,260.129h-1.363a1.743,1.743,0,0,1-1.742-1.742v-3.23a1.136,1.136,0,0,1,2.272,0v2.7h.833a1.136,1.136,0,0,1,0,2.272Z" transform="translate(-232.453 -253.44)" fill="#ff9518"/>
  </g>
  <path id="Path_445" data-name="Path 445" d="M227.86,320.365h-6.213a.951.951,0,0,0-.951.951,4.057,4.057,0,0,0,8.115,0A.951.951,0,0,0,227.86,320.365Z" transform="translate(-193.843 -281.383)" fill="#fff"/>
  <path id="Path_446" data-name="Path 446" d="M338.02,39.608a.61.61,0,0,0-.608-.608H314.526a.61.61,0,0,0-.608.608V52.119a.61.61,0,0,0,.608.608h6.663a.61.61,0,0,1,.608.608v2.247c0,.335.235.468.523.3l4.767-2.841a2.615,2.615,0,0,1,1.131-.312h9.194a.61.61,0,0,0,.608-.608Z" transform="translate(-275.721 -34.255)" fill="#ff9518"/>
  <path id="Path_447" data-name="Path 447" d="M2.414,139.558v-13a.61.61,0,0,1,.608-.608H.608a.61.61,0,0,0-.608.608v13a.61.61,0,0,0,.608.608H3.023A.61.61,0,0,1,2.414,139.558Z" transform="translate(0 -110.625)" fill="#293d7c"/>
  <path id="Path_448" data-name="Path 448" d="M316.332,52.119V39.608a.61.61,0,0,1,.608-.608h-2.414a.61.61,0,0,0-.608.608V52.119a.61.61,0,0,0,.608.608h2.414A.61.61,0,0,1,316.332,52.119Z" transform="translate(-275.721 -34.255)" fill="#ef8318"/>
  <g id="Group_206" data-name="Group 206" transform="translate(40.482 8.087)">
    <path id="Path_449" data-name="Path 449" d="M335.54,66.689c.148-.3.389-.3.537,0l.516,1.045a1.3,1.3,0,0,0,.869.631l1.154.168c.33.048.4.278.166.51l-.835.814a1.3,1.3,0,0,0-.332,1.021l.2,1.149c.057.329-.139.471-.434.316l-1.032-.543a1.3,1.3,0,0,0-1.074,0l-1.032.543c-.3.155-.491.013-.434-.316l.2-1.149a1.3,1.3,0,0,0-.332-1.021l-.835-.814c-.239-.233-.164-.463.166-.51l1.154-.168a1.3,1.3,0,0,0,.869-.631Z" transform="translate(-332.696 -66.465)" fill="#fff"/>
    <path id="Path_450" data-name="Path 450" d="M395.513,66.689c.148-.3.389-.3.537,0l.516,1.045a1.3,1.3,0,0,0,.869.631l1.154.168c.33.048.4.278.166.51l-.835.814a1.3,1.3,0,0,0-.332,1.021l.2,1.149c.057.329-.139.471-.434.316l-1.032-.543a1.3,1.3,0,0,0-1.074,0l-1.032.543c-.3.155-.491.013-.434-.316l.2-1.149a1.3,1.3,0,0,0-.332-1.021l-.835-.814c-.239-.233-.164-.463.166-.51l1.154-.168a1.3,1.3,0,0,0,.869-.631Z" transform="translate(-385.371 -66.465)" fill="#fff"/>
    <path id="Path_451" data-name="Path 451" d="M455.483,66.689c.148-.3.389-.3.537,0l.516,1.045a1.3,1.3,0,0,0,.869.631l1.154.168c.33.048.4.278.166.51l-.835.814a1.3,1.3,0,0,0-.332,1.021l.2,1.149c.057.329-.139.471-.434.316l-1.032-.543a1.3,1.3,0,0,0-1.074,0l-1.032.543c-.3.155-.491.013-.435-.316l.2-1.149a1.3,1.3,0,0,0-.332-1.021l-.835-.814c-.239-.233-.164-.463.166-.51l1.154-.168a1.3,1.3,0,0,0,.869-.631Z" transform="translate(-438.044 -66.465)" fill="#fff"/>
  </g>
  <g id="Group_207" data-name="Group 207" transform="translate(3.63 18.277)">
    <path id="Path_452" data-name="Path 452" d="M42.724,152.029H30.747a.913.913,0,0,1,0-1.825H42.724a.913.913,0,0,1,0,1.825Z" transform="translate(-29.834 -150.204)" fill="#91e0e8"/>
    <path id="Path_453" data-name="Path 453" d="M42.724,176.68H30.747a.913.913,0,1,1,0-1.825H42.724a.913.913,0,1,1,0,1.825Z" transform="translate(-29.834 -171.855)" fill="#91e0e8"/>
    <path id="Path_454" data-name="Path 454" d="M36.759,201.33H30.747a.913.913,0,1,1,0-1.825h6.012a.913.913,0,1,1,0,1.825Z" transform="translate(-29.834 -193.506)" fill="#91e0e8"/>
  </g>
</svg>
