<svg xmlns="http://www.w3.org/2000/svg" width="377.411" height="273.998" viewBox="0 0 377.411 273.998">
  <g id="Group_189" data-name="Group 189" transform="translate(-24.206 -27.693)">
    <g id="Group_157" data-name="Group 157" transform="translate(176.79 27.693)">
      <g id="Group_137" data-name="Group 137" transform="translate(0 0.053)">
        <path id="Path_217" data-name="Path 217" d="M218.463,96.034v42.29H199.885a2.988,2.988,0,0,1-2.985-2.989V99.019a2.985,2.985,0,0,1,2.985-2.985Z" transform="translate(-196.9 -52.256)" fill="#1d253d"/>
        <path id="Path_218" data-name="Path 218" d="M302.847,91.576c-1.91,17.981-12.122,22.267-12.122,22.267h-60.2V71.553c16.894-3.248,24.94-24.054,23.2-34.487a22.308,22.308,0,0,0,.012-6.378,4.122,4.122,0,0,1,4.715-2.853c11.615,1.82,12.278,25.92,12.188,33.775a2.57,2.57,0,0,0,2.392,2.6,131.93,131.93,0,0,1,22.6,3.4c5.567,1.458,7.876,2.916,8.56,6.1C304.911,77.066,303.827,82.349,302.847,91.576Z" transform="translate(-208.958 -27.775)" fill="#fea30a"/>
      </g>
      <g id="Group_138" data-name="Group 138">
        <path id="Path_219" data-name="Path 219" d="M218.463,96.034v35.85H199.885A2.987,2.987,0,0,1,196.9,128.9V99.019a2.985,2.985,0,0,1,2.985-2.985Z" transform="translate(-196.9 -52.203)" fill="#465a94"/>
        <path id="Path_220" data-name="Path 220" d="M304.186,73.677c-.3,2.94-.832,6.658-1.338,11.43-1.91,17.981-12.122,22.267-12.122,22.267h-60.2V71.523c8.421-1.619,14.976-7.846,18.949-15.2,2.866-5.308,3.761-11.295,4.141-17.239.222-3.474-1.131-12.49,4.835-11.276,11.615,1.82,12.278,25.92,12.188,33.775a2.57,2.57,0,0,0,2.392,2.6,131.93,131.93,0,0,1,22.6,3.4C301.193,69.033,303.5,70.49,304.186,73.677Z" transform="translate(-208.958 -27.693)" fill="#feb12f"/>
      </g>
      <path id="Path_221" data-name="Path 221" d="M306.879,161.972h9.062l-4.378,4.781v5.181h-6.44v-4.477a7.291,7.291,0,0,1,.635-2.977Z" transform="translate(-235.714 -75.852)" fill="#bf6d3e"/>
      <g id="Group_139" data-name="Group 139" transform="translate(67.192 81.557)">
        <path id="Path_222" data-name="Path 222" d="M305.381,163.56a2.865,2.865,0,0,0-.182-5.232,4.21,4.21,0,0,0-3.533-3.47,31.32,31.32,0,0,1,2.4,9.124Z" transform="translate(-301.666 -154.858)" fill="#bf6d3e"/>
        <path id="Path_223" data-name="Path 223" d="M305.074,156.19a1.936,1.936,0,0,1,1,1.545,2.481,2.481,0,0,0,.384,1.018,3.942,3.942,0,0,0,.926.639,2.507,2.507,0,0,1,1.117,1.8,5.333,5.333,0,0,1-.493,2.386c-.092.247-.456.053-.364-.192a4.65,4.65,0,0,0,.435-2.263,2.3,2.3,0,0,0-1.294-1.613,2.046,2.046,0,0,1-.718-.594,2.534,2.534,0,0,1-.332-.825c-.139-.562-.229-1.3-.85-1.535C304.634,156.462,304.829,156.1,305.074,156.19Z" transform="translate(-302.778 -155.33)" fill="#80410e"/>
      </g>
      <path id="Path_224" data-name="Path 224" d="M211.251,161.972h-9.062l4.379,4.781v5.181h6.44v-4.477a7.3,7.3,0,0,0-.635-2.977Z" transform="translate(-198.797 -75.852)" fill="#bf6d3e"/>
      <g id="Group_140" data-name="Group 140" transform="translate(50.995 94.044)">
        <path id="Path_225" data-name="Path 225" d="M276.412,213.462a71.889,71.889,0,0,0,14.6-12.595,262.475,262.475,0,0,0,3-26.253,44.609,44.609,0,0,1,8.25-.161,147.345,147.345,0,0,1,1.972,34.945c-7.275,7.192-15.04,15.221-22.316,22.413Z" transform="translate(-276.412 -174.327)" fill="#465a94"/>
        <path id="Path_226" data-name="Path 226" d="M305.809,219.73a11.5,11.5,0,0,0,1.088-1.879q-.051,3.573-.288,7.157c-7.275,7.192-15.04,15.221-22.316,22.413l-1.281-4.264C291.065,235.907,299.02,228.5,305.809,219.73Z" transform="translate(-278.779 -189.937)" fill="#1d253d"/>
        <path id="Path_227" data-name="Path 227" d="M304.8,181.145l5.5.131c.264.006.283.418.018.411l-5.5-.131C304.55,181.55,304.53,181.139,304.8,181.145Z" transform="translate(-286.524 -176.772)" fill="#1d253d"/>
      </g>
      <g id="Group_141" data-name="Group 141" transform="translate(4.412 94.044)">
        <path id="Path_228" data-name="Path 228" d="M231.915,213.462a71.873,71.873,0,0,1-14.6-12.595,262.278,262.278,0,0,1-3-26.253,44.61,44.61,0,0,0-8.25-.161,147.346,147.346,0,0,0-1.972,34.945c7.275,7.192,15.04,15.221,22.316,22.413Z" transform="translate(-203.78 -174.327)" fill="#465a94"/>
        <path id="Path_229" data-name="Path 229" d="M226.75,239.935q.184,2.065.3,4.137l-.644,2.144c-7.275-7.192-15.04-15.221-22.316-22.413q-.315-4.667-.3-9.312C207.777,225.154,216.82,233.316,226.75,239.935Z" transform="translate(-203.782 -188.732)" fill="#1d253d"/>
        <path id="Path_230" data-name="Path 230" d="M207.92,181.428l7.288-.369a.206.206,0,0,1,.018.411l-7.288.369A.206.206,0,0,1,207.92,181.428Z" transform="translate(-205.197 -176.741)" fill="#1d253d"/>
      </g>
      <g id="Group_146" data-name="Group 146" transform="translate(19.097 181.777)">
        <g id="Group_145" data-name="Group 145">
          <g id="Group_142" data-name="Group 142" transform="translate(2.535)">
            <path id="Path_231" data-name="Path 231" d="M234.108,435.35c0,1.008.009,1.988.021,2.928h5.845l.326-2.928Z" transform="translate(-231.876 -355.676)" fill="#001e4a"/>
            <path id="Path_232" data-name="Path 232" d="M279.231,435.35c0,1.008.009,1.988.022,2.928H285.1l.326-2.928Z" transform="translate(-248.06 -355.676)" fill="#001e4a"/>
            <path id="Path_233" data-name="Path 233" d="M279.291,311.121c-15.486,1.7-17.728,10.564-17.728,10.564l6.254,36.932,3.283,33.826h10.419C284.665,350.146,279.291,311.121,279.291,311.121Z" transform="translate(-241.723 -311.121)" fill="#1d253d"/>
            <path id="Path_234" data-name="Path 234" d="M254.629,322.173s6.889-4.413,7.7-8.275l-27.917.919s-3.887,49.874-3.777,76.974h10.652Z" transform="translate(-230.628 -312.117)" fill="#465a94"/>
            <path id="Path_235" data-name="Path 235" d="M253.846,331.577l-12.563,67.176H230.631c-.082-20.165,2.049-54.582,3.145-70.035A57.637,57.637,0,0,0,253.846,331.577Z" transform="translate(-230.628 -317.432)" fill="#465a94"/>
            <path id="Path_236" data-name="Path 236" d="M235.536,323.4c.377-5.314.632-8.586.632-8.586l27.917-.919c-.807,3.862-7.7,8.275-7.7,8.275l-.784,4.089A57.636,57.636,0,0,1,235.536,323.4Z" transform="translate(-232.389 -312.117)" fill="#1d253d"/>
            <path id="Path_237" data-name="Path 237" d="M263.176,316.782a9.934,9.934,0,0,0,2.875-4.425l-26.132-1.236s-.212,2.809-.312,3.976A71.7,71.7,0,0,0,263.176,316.782Z" transform="translate(-233.849 -311.121)" fill="#1d253d"/>
          </g>
          <g id="Group_143" data-name="Group 143" transform="translate(0 81.976)">
            <path id="Path_238" data-name="Path 238" d="M237.747,439.127l-6.841-.188a15.91,15.91,0,0,0-3.931,7.148h12.352A29.127,29.127,0,0,0,237.747,439.127Z" transform="translate(-226.784 -438.939)" fill="#001e4a"/>
            <path id="Path_239" data-name="Path 239" d="M226.868,450.085c-.063.256-.129.511-.18.77a.654.654,0,0,0,.637.786h11.325a.651.651,0,0,0,.65-.7c-.022-.287-.051-.572-.08-.858Z" transform="translate(-226.676 -442.937)" fill="#a86114"/>
          </g>
          <g id="Group_144" data-name="Group 144" transform="translate(31.674 81.976)">
            <path id="Path_240" data-name="Path 240" d="M277.771,439.127l6.841-.188c1.907,1.984,13.386,4.48,14.051,7.148H276.191A29.129,29.129,0,0,1,277.771,439.127Z" transform="translate(-276.108 -438.939)" fill="#001e4a"/>
            <path id="Path_241" data-name="Path 241" d="M298.618,450.085c.063.256.129.511.18.77a.654.654,0,0,1-.637.786H276.715a.651.651,0,0,1-.651-.7c.023-.287.051-.572.081-.858Z" transform="translate(-276.062 -442.937)" fill="#a86114"/>
          </g>
        </g>
        <path id="Path_242" data-name="Path 242" d="M240.054,384.183c-.848-1.458-1.735-2.877-2.438-4.415a41.5,41.5,0,0,1-1.732-4.8.16.16,0,0,0-.309.085,21.98,21.98,0,0,0,1.613,4.9,20.236,20.236,0,0,0,2.565,4.462C239.891,384.588,240.161,384.367,240.054,384.183Z" transform="translate(-229.867 -333.98)" fill="#1d253d"/>
        <path id="Path_243" data-name="Path 243" d="M233.176,433.8h6.789c.264,0,.284.411.018.411h-6.789C232.929,434.208,232.909,433.8,233.176,433.8Z" transform="translate(-228.939 -355.119)" fill="#1d253d"/>
      </g>
      <g id="Group_149" data-name="Group 149" transform="translate(23.195 132.413)">
        <path id="Path_244" data-name="Path 244" d="M267.3,239.906a4.652,4.652,0,0,0-3.223-4.067,31.616,31.616,0,0,0-12.783-1.6,54.442,54.442,0,0,0-11.728,2.241,4.815,4.815,0,0,0-3.669,5.253,182.648,182.648,0,0,1,2.175,41.527c10.233,2.969,20.442,3.835,30.117.455C268.517,269.577,267.962,254.064,267.3,239.906Z" transform="translate(-234.06 -234.153)" fill="#a6f3ff"/>
        <path id="Path_245" data-name="Path 245" d="M259.057,238.828a15.99,15.99,0,0,0-3.128,2.081c-.414-.769-.8-1.557-1.2-2.333q-.328-.64-.658-1.278a7.45,7.45,0,0,0-.7-1.249c-.121-.151-.354.013-.309.18a7.168,7.168,0,0,0,.581,1.26q.331.667.666,1.332c.438.87.9,1.732,1.313,2.616a.259.259,0,0,0,.4.052,19.206,19.206,0,0,1,3.27-2.247C259.572,239.095,259.331,238.689,259.057,238.828Z" transform="translate(-240.237 -234.812)" fill="#47bed1"/>
        <path id="Path_246" data-name="Path 246" d="M266.5,239.153q-.023-.559-.031-1.119a2.5,2.5,0,0,0-.084-1.076.17.17,0,0,0-.291,0,2.181,2.181,0,0,0-.083,1.032q.007.581.03,1.162c.026.62.069,1.238.124,1.857q-.768-.438-1.536-.874c-.314-.178-.63-.352-.947-.526a3.35,3.35,0,0,0-.979-.449.127.127,0,0,0-.122.21,3.339,3.339,0,0,0,.883.614c.31.184.621.368.934.548q.957.55,1.918,1.1a.234.234,0,0,0,.349-.2Q266.547,240.293,266.5,239.153Z" transform="translate(-243.638 -235.13)" fill="#47bed1"/>
        <path id="Path_247" data-name="Path 247" d="M261.783,240.765l-1.453,1.149.727,1.137-.135,38.7,2.886,1.5,2.452-1.5-3.382-38.476.417-1.523Z" transform="translate(-242.844 -236.524)" fill="#dd4f05"/>
        <path id="Path_248" data-name="Path 248" d="M234.021,244.543c-.491-3.3.862-6.884,3.528-7.853a26.606,26.606,0,0,1,6.737-1.569c1.8,7.52,9.231,22.892,9.231,22.892s5.776-17.59,2.379-23.654a20.956,20.956,0,0,1,8.482,1.61c2.047,1.043,3.331,4.411,3.484,7.021.948,16.14,3.964,32.915,5.233,49.286-1.575.737-3.637.754-5.333.907-2.764.249-5.539.375-8.313.478-8.992.333-17.882.044-26.383-3.224C234.3,275.1,236.289,259.815,234.021,244.543Z" transform="translate(-233.066 -234.222)" fill="#465a94"/>
        <path id="Path_249" data-name="Path 249" d="M237.251,252.928c1.3,14.579.042,29.411-2.758,43.9-.477-.165-.953-.335-1.428-.517,1.225-15.23,3.2-30.418,1-45.589Q235.638,251.851,237.251,252.928Z" transform="translate(-233.066 -240.095)" fill="#1d253d"/>
        <g id="Group_147" data-name="Group 147" transform="translate(21.25 4.576)">
          <path id="Path_250" data-name="Path 250" d="M273.049,250.438l3.049-1.044.762-.261a4.217,4.217,0,0,0,.674-.247c.439-.243.268-.763.143-1.145q-1.012-3.1-2.037-6.188a.206.206,0,0,1,.392-.127l1.732,5.262c.134.409.292.817.4,1.235a1.339,1.339,0,0,1-.028.931,1.192,1.192,0,0,1-.73.53c-.423.149-.849.291-1.274.436l-2.954,1.011A.206.206,0,0,1,273.049,250.438Z" transform="translate(-268.607 -241.288)" fill="#1d253d"/>
          <path id="Path_251" data-name="Path 251" d="M273.343,255.687l3.441,3.569c.183.19-.094.494-.278.3l-3.441-3.569C272.882,255.8,273.159,255.5,273.343,255.687Z" transform="translate(-268.64 -246.431)" fill="#1d253d"/>
          <path id="Path_252" data-name="Path 252" d="M266.246,271.04l7.806-9.793c.165-.207.468.072.3.278l-7.807,9.793C266.384,271.526,266.082,271.246,266.246,271.04Z" transform="translate(-266.199 -248.42)" fill="#1d253d"/>
        </g>
        <g id="Group_148" data-name="Group 148" transform="translate(7.7 5.774)">
          <path id="Path_253" data-name="Path 253" d="M250.5,251.83l-3.165-.609-.791-.153a4.215,4.215,0,0,1-.7-.151c-.468-.18-.371-.718-.3-1.115.381-2.138.771-4.275,1.156-6.412a.206.206,0,0,0-.405-.071l-.983,5.453c-.076.423-.175.85-.221,1.278a1.336,1.336,0,0,0,.158.917,1.184,1.184,0,0,0,.8.423c.44.089.881.17,1.322.255l3.066.591A.206.206,0,0,0,250.5,251.83Z" transform="translate(-245.071 -243.156)" fill="#1d253d"/>
          <path id="Path_254" data-name="Path 254" d="M251.5,256.856l-2.911,4.013c-.155.214.162.477.318.262l2.91-4.013C251.976,256.9,251.66,256.641,251.5,256.856Z" transform="translate(-246.319 -248.041)" fill="#1d253d"/>
          <path id="Path_255" data-name="Path 255" d="M257.975,271.678l-9.093-8.611c-.193-.183-.453.136-.262.317L257.713,272C257.906,272.178,258.167,271.86,257.975,271.678Z" transform="translate(-246.32 -250.278)" fill="#1d253d"/>
        </g>
        <path id="Path_256" data-name="Path 256" d="M265.031,272.207q.441,6.911.688,13.833t.3,13.847q.029,3.9,0,7.8c0,.264-.414.284-.412.019q.058-6.926-.079-13.85t-.468-13.842q-.187-3.894-.435-7.785A.206.206,0,0,1,265.031,272.207Z" transform="translate(-244.383 -247.733)" fill="#1d253d"/>
        <path id="Path_257" data-name="Path 257" d="M276.261,304.8a11.989,11.989,0,0,0,7.374-.3c.249-.092.375.3.127.392a12.374,12.374,0,0,1-7.594.308C275.914,305.134,276,304.732,276.261,304.8Z" transform="translate(-248.47 -259.38)" fill="#1d253d"/>
        <path id="Path_258" data-name="Path 258" d="M241.748,305.647a11.986,11.986,0,0,0,7.375-.3c.249-.092.375.3.126.392a12.376,12.376,0,0,1-7.593.307C241.4,305.977,241.492,305.575,241.748,305.647Z" transform="translate(-236.093 -259.682)" fill="#1d253d"/>
      </g>
      <g id="Group_155" data-name="Group 155" transform="translate(34.591 108.487)">
        <path id="Path_259" data-name="Path 259" d="M265.71,207.943a11.314,11.314,0,0,0-.5-7.638,2.533,2.533,0,0,0-.272-1.782,3.342,3.342,0,0,0-1.285-1.23,3.054,3.054,0,0,0-2.331-.342,2.011,2.011,0,0,0-1.458,1.739,9.409,9.409,0,0,0-1.757-.943,3.453,3.453,0,0,0-2.055-.128,2.1,2.1,0,0,0-1.463,1.367,1.517,1.517,0,0,0,.751,1.766,2.283,2.283,0,0,0-2.438-.423,3.231,3.231,0,0,0-1.592,1.754,3.34,3.34,0,0,0-.269,1.884,2.049,2.049,0,0,0,1.092,1.5,2.786,2.786,0,0,0-1.234,3.107,7.108,7.108,0,0,0,1.8,3.188,15.045,15.045,0,0,1,2.241,2.935Z" transform="translate(-250.834 -196.847)" fill="#7a2923"/>
        <path id="Path_260" data-name="Path 260" d="M266.083,208.57a11.729,11.729,0,0,0-.444-7.352,2.614,2.614,0,0,0-.241-1.714,3.091,3.091,0,0,0-1.142-1.184,2.537,2.537,0,0,0-2.072-.33,1.9,1.9,0,0,0-1.3,1.673,8.148,8.148,0,0,0-1.561-.908,2.848,2.848,0,0,0-1.827-.124,1.932,1.932,0,0,0-1.3,1.316,1.51,1.51,0,0,0,.668,1.7,1.911,1.911,0,0,0-2.167-.407,3.031,3.031,0,0,0-1.415,1.688,3.458,3.458,0,0,0-.239,1.813,1.968,1.968,0,0,0,.97,1.446,2.783,2.783,0,0,0-1.1,2.991,7.014,7.014,0,0,0,1.6,3.068,14.426,14.426,0,0,1,1.991,2.824Z" transform="translate(-251.561 -197.222)" fill="#3b1411"/>
        <g id="Group_154" data-name="Group 154" transform="translate(0.964 5.905)">
          <g id="Group_153" data-name="Group 153">
            <g id="Group_152" data-name="Group 152">
              <g id="Group_150" data-name="Group 150" transform="translate(1.924 8.616)">
                <path id="Path_261" data-name="Path 261" d="M255.581,219.488a49.66,49.66,0,0,1-.229,10,1.819,1.819,0,0,0,.754,1.721,7.448,7.448,0,0,0,5.306,1.267,1.8,1.8,0,0,0,1.507-1.935,59.515,59.515,0,0,1-.182-6.426A14.424,14.424,0,0,0,255.581,219.488Z" transform="translate(-255.338 -219.488)" fill="#bf6d3e"/>
                <path id="Path_262" data-name="Path 262" d="M262.874,224.112a14.424,14.424,0,0,0-7.157-4.624q.1,1.314.134,2.632a10.214,10.214,0,0,0,7.107,6.91C262.865,227.412,262.835,225.814,262.874,224.112Z" transform="translate(-255.474 -219.488)" fill="#80410e"/>
              </g>
              <g id="Group_151" data-name="Group 151">
                <path id="Path_263" data-name="Path 263" d="M266.286,209.243c.62,4.648-.351,12.61-3.86,12.971-4.126.425-6.659-3.247-7.579-6.628a1,1,0,0,1-.779.254,1.941,1.941,0,0,1-1.142-.817,2.289,2.289,0,0,1-.4-2.328,1.253,1.253,0,0,1,2.254-.026,13.069,13.069,0,0,1,1.1-4.837,1.859,1.859,0,0,1,1.12-1.114,13.141,13.141,0,0,1,7.735-.156,1.86,1.86,0,0,1,1.237,1.276A10.268,10.268,0,0,1,266.286,209.243Z" transform="translate(-252.337 -206.054)" fill="#bf6d3e"/>
                <path id="Path_264" data-name="Path 264" d="M264.177,211.209c-.748-.949-2.806-.294-3.564.316-.139.112-.306.254-.289.452a.236.236,0,0,0,.167.219c.233.067.453-.126.648-.228a3.276,3.276,0,0,1,1.875-.359,4.03,4.03,0,0,0,1.02.144C264.3,211.713,264.308,211.376,264.177,211.209Z" transform="translate(-255.201 -207.732)" fill="#3b1411"/>
                <path id="Path_265" data-name="Path 265" d="M264.136,213.917a.413.413,0,0,0-.241-.242.347.347,0,0,0-.176-.039l-.121.016a.449.449,0,0,0-.2.118l-.072.092a.455.455,0,0,0-.062.23v.049a.345.345,0,0,0,.039.176.341.341,0,0,0,.095.147.334.334,0,0,0,.147.094.339.339,0,0,0,.176.04l.122-.017a.449.449,0,0,0,.2-.117l.071-.092a.455.455,0,0,0,.063-.23v-.049A.345.345,0,0,0,264.136,213.917Z" transform="translate(-256.255 -208.773)" fill="#3b1411"/>
                <path id="Path_266" data-name="Path 266" d="M271.932,214.358a.346.346,0,0,0-.094-.147.516.516,0,0,0-.323-.134l-.121.017a.46.46,0,0,0-.2.117l-.071.092a.454.454,0,0,0-.062.23v.049a.469.469,0,0,0,.457.457l.121-.016a.455.455,0,0,0,.2-.118l.071-.092a.454.454,0,0,0,.062-.23v-.049A.338.338,0,0,0,271.932,214.358Z" transform="translate(-259.051 -208.932)" fill="#3b1411"/>
                <path id="Path_267" data-name="Path 267" d="M272.571,212.115a1.383,1.383,0,0,0-.924-.618,2.16,2.16,0,0,0-1.081-.021.342.342,0,0,0-.245.375c.037.278.273.287.493.291a2.2,2.2,0,0,1,.855.158c.185.079,1.154.563.959-.049A.861.861,0,0,0,272.571,212.115Z" transform="translate(-258.786 -207.978)" fill="#3b1411"/>
                <path id="Path_268" data-name="Path 268" d="M266.149,226.588a1.587,1.587,0,0,0-.444,0,2.977,2.977,0,0,1-.391-.024,3.811,3.811,0,0,1-.405-.082,1.3,1.3,0,0,0-.436-.088.179.179,0,0,0-.124.3.833.833,0,0,0,.423.233,2.566,2.566,0,0,0,.443.108,3.694,3.694,0,0,0,.476.044,1.017,1.017,0,0,0,.514-.067A.234.234,0,0,0,266.149,226.588Z" transform="translate(-256.628 -213.348)" fill="#804e26"/>
                <path id="Path_269" data-name="Path 269" d="M254.65,218.148a.292.292,0,0,1-.378-.192.272.272,0,0,1,.08-.222.268.268,0,0,1,.2-.1.184.184,0,0,0,.176-.231,1.121,1.121,0,0,0-1.09-.932.706.706,0,0,0-.583.4.513.513,0,0,0-.03.342c.017.067.1.238.195.153.056-.051.038-.126.056-.192a.677.677,0,0,1,.09-.2.387.387,0,0,1,.369-.155.74.74,0,0,1,.578.5.6.6,0,0,0-.344.7.631.631,0,0,0,.764.432C254.928,218.392,254.842,218.082,254.65,218.148Z" transform="translate(-252.578 -209.788)" fill="#804e26"/>
              </g>
            </g>
            <path id="Path_270" data-name="Path 270" d="M269.778,217.4a6.711,6.711,0,0,0-.71-.494.7.7,0,0,1-.332-.709c.022-.217-.269-.243-.371-.1-.31.434.112.975.459,1.227a4.88,4.88,0,0,1,.63.443,1.454,1.454,0,0,1,.353.586,1.4,1.4,0,0,1-.226,1.3,2.011,2.011,0,0,1-1.209.621.153.153,0,0,0,0,.292,1.567,1.567,0,0,0,1.391-.431,1.8,1.8,0,0,0,.6-1.374A1.927,1.927,0,0,0,269.778,217.4Z" transform="translate(-258.047 -209.625)" fill="#80410e"/>
          </g>
          <path id="Path_271" data-name="Path 271" d="M265.977,224.255a3.517,3.517,0,0,1-3.926-1.429.206.206,0,0,1,.346-.224,3.094,3.094,0,0,0,3.453,1.262C266.1,223.789,266.231,224.18,265.977,224.255Z" transform="translate(-255.808 -211.957)" fill="#3b1411"/>
        </g>
      </g>
      <path id="Path_272" data-name="Path 272" d="M287.21,246.848q.476,9.231,1.675,18.406.336,2.569.729,5.129c.04.262-.371.278-.411.018q-1.4-9.137-2.081-18.365-.189-2.583-.323-5.17A.206.206,0,0,1,287.21,246.848Z" transform="translate(-229.142 -106.225)" fill="#1d253d"/>
      <g id="Group_156" data-name="Group 156" transform="translate(10.692 81.557)">
        <path id="Path_273" data-name="Path 273" d="M215.82,163.56a2.865,2.865,0,0,1,.182-5.232,4.211,4.211,0,0,1,3.533-3.47,31.339,31.339,0,0,0-2.4,9.124Z" transform="translate(-213.8 -154.858)" fill="#bf6d3e"/>
        <path id="Path_274" data-name="Path 274" d="M217.01,156.19a1.936,1.936,0,0,0-1,1.545,2.49,2.49,0,0,1-.384,1.018,3.93,3.93,0,0,1-.926.639,2.506,2.506,0,0,0-1.117,1.8,5.341,5.341,0,0,0,.492,2.386c.093.247.457.053.364-.192a4.649,4.649,0,0,1-.434-2.263,2.3,2.3,0,0,1,1.293-1.613,2.034,2.034,0,0,0,.718-.594,2.508,2.508,0,0,0,.332-.825c.14-.562.23-1.3.85-1.535C217.449,156.462,217.255,156.1,217.01,156.19Z" transform="translate(-213.571 -155.33)" fill="#80410e"/>
      </g>
    </g>
    <g id="Group_167" data-name="Group 167" transform="translate(319.905 88.691)">
      <path id="Path_275" data-name="Path 275" d="M371.087,211.1a8.293,8.293,0,0,1,5.786,6.52,4.845,4.845,0,0,0,.542,2.031c.424.62,1.228,1,1.394,1.732.176.779-.466,1.643-.1,2.351s1.542.723,1.9,1.452c.4.807-.509,1.812-.142,2.635.334.749,1.4.733,2.1,1.155a2.242,2.242,0,0,1,.974,1.943,4.939,4.939,0,0,1-.632,2.163,15.19,15.19,0,0,1-10.551,7.639,22.68,22.68,0,0,1-13.177-1.63,6.38,6.38,0,0,1-2.648-1.746,2.532,2.532,0,0,1-.25-2.972,6.154,6.154,0,0,0,.752-.936c.6-1.281-1.308-2.583-1.026-3.97.153-.75.886-1.208,1.514-1.648s1.27-1.109,1.108-1.857c-.08-.369-.348-.674-.435-1.041-.224-.952.77-1.685,1.4-2.435,1.12-1.336,1.186-3.224,1.4-4.953A7.876,7.876,0,0,1,371.087,211.1Z" transform="translate(-342.263 -154.356)" fill="#96432a"/>
      <path id="Path_276" data-name="Path 276" d="M371.448,213.759a7.821,7.821,0,0,1,5.457,6.151,4.574,4.574,0,0,0,.512,1.916c.4.584,1.158.943,1.315,1.634.167.735-.439,1.55-.09,2.218s1.455.682,1.8,1.37c.378.762-.48,1.709-.133,2.486.315.707,1.316.691,1.98,1.09a2.114,2.114,0,0,1,.919,1.833,4.652,4.652,0,0,1-.6,2.041,14.33,14.33,0,0,1-9.953,7.206,21.4,21.4,0,0,1-12.431-1.538,6.009,6.009,0,0,1-2.5-1.647,2.389,2.389,0,0,1-.237-2.8,5.748,5.748,0,0,0,.71-.882c.566-1.209-1.235-2.437-.967-3.745.144-.708.836-1.14,1.428-1.555s1.2-1.047,1.045-1.753c-.076-.348-.328-.636-.41-.982-.212-.9.726-1.589,1.319-2.3,1.056-1.26,1.119-3.041,1.324-4.672A7.43,7.43,0,0,1,371.448,213.759Z" transform="translate(-342.701 -155.317)" fill="#6c301e"/>
      <g id="Group_158" data-name="Group 158" transform="translate(28.307 52.528)">
        <path id="Path_277" data-name="Path 277" d="M406.8,228.385a1.563,1.563,0,0,0-.774-1.3,4.124,4.124,0,0,0-1.486-.5,26.259,26.259,0,0,0-4.59-.457,1.659,1.659,0,0,0-1.638,1.342,8.465,8.465,0,0,0-.175,1.179c-1.045.716-1.005,2.336-.829,3.591-2.434,2.15-6.412,5.2-9.561,5.993s-6.512,2.112-8.026,4.985c-1.051,1.992-1,4.361-.9,6.611.069,1.638.237,3.492,2.391,4.028a4.8,4.8,0,0,0,2.07.011c4.408-.852,7.223-4.666,11.057-6.969,3.661-2.2,7.391-4.552,9.846-8.048S409.129,231.963,406.8,228.385Z" transform="translate(-378.766 -212.389)" fill="#ff941e"/>
        <path id="Path_278" data-name="Path 278" d="M407.18,233.912a5.612,5.612,0,0,0-.384-5.527,1.563,1.563,0,0,0-.774-1.3,4.124,4.124,0,0,0-1.486-.5,26.259,26.259,0,0,0-4.59-.457,1.659,1.659,0,0,0-1.638,1.342,8.465,8.465,0,0,0-.175,1.179c-1.045.716-1.005,2.336-.829,3.591-2.434,2.15-6.412,5.2-9.561,5.993s-6.512,2.112-8.026,4.985c-1.051,1.992-1,4.361-.9,6.611.015.366.037.743.084,1.113C389.25,247.529,399.813,242.149,407.18,233.912Z" transform="translate(-378.766 -212.389)" fill="#ff941e"/>
        <path id="Path_279" data-name="Path 279" d="M378.97,255.3a2.988,2.988,0,0,0,2.307,2.915,4.8,4.8,0,0,0,2.07.011c4.408-.852,7.223-4.666,11.057-6.969,3.661-2.2,7.391-4.552,9.846-8.048a26.417,26.417,0,0,0,3-4.944C399.886,246.5,389.323,251.88,378.97,255.3Z" transform="translate(-378.839 -216.74)" fill="#a86114"/>
        <path id="Path_280" data-name="Path 280" d="M410.288,204.994l-.374,14.406a2.007,2.007,0,0,0,1.832,2.064,6.023,6.023,0,0,0,3.084-.584,2,2,0,0,0,1.095-2.106l-2.1-14.042A12.536,12.536,0,0,0,410.288,204.994Z" transform="translate(-389.937 -204.704)" fill="#ffc9b9"/>
        <path id="Path_281" data-name="Path 281" d="M412.684,239.011a6.254,6.254,0,0,1-4.126-2.545c-.154-.215-.456.065-.3.278a6.65,6.65,0,0,0,4.411,2.678C412.927,239.461,412.944,239.049,412.684,239.011Z" transform="translate(-389.327 -216.068)" fill="#a86114"/>
        <path id="Path_282" data-name="Path 282" d="M414.683,232.055a6.922,6.922,0,0,1-3.561-.969c-.228-.136-.452.21-.223.346a7.341,7.341,0,0,0,3.767,1.035C414.929,232.465,414.949,232.054,414.683,232.055Z" transform="translate(-390.256 -214.154)" fill="#a86114"/>
      </g>
      <path id="Path_283" data-name="Path 283" d="M371.016,242.645a13.527,13.527,0,0,0-8.377.479c-1.239.487-2.568,1.431-2.518,2.762.044,1.154,1.113,1.98,2.13,2.528a17.934,17.934,0,0,0,12.417,1.673c2.024-.467,4.039-2.144,2.223-4.111A12.6,12.6,0,0,0,371.016,242.645Z" transform="translate(-343.772 -165.623)" fill="#ff941e"/>
      <path id="Path_284" data-name="Path 284" d="M353.039,250.723c-2.939.469-5.319,2.86-7.045,5.485s-3.007,5.59-4.9,8.076c-1.555,2.042-3.5,3.727-4.892,5.9s-2.157,5.127-1.026,7.476a6.481,6.481,0,0,0,5.9,3.3,5.636,5.636,0,0,0,4.6-1.865,5.91,5.91,0,0,0,1.088-3.833c-.01-.276-.033-.552-.068-.825a5.149,5.149,0,0,1,1.47-4.228,9.232,9.232,0,0,0,.908-1.1,28.724,28.724,0,0,0,4.582-8.7C354.568,257.207,354.616,253.613,353.039,250.723Z" transform="translate(-334.63 -168.681)" fill="#ff941e"/>
      <path id="Path_285" data-name="Path 285" d="M353.388,261.249c.093-.276.187-.551.267-.833.913-3.209.961-6.8-.616-9.693-2.939.469-5.319,2.86-7.045,5.485s-3.007,5.59-4.9,8.076c-1.555,2.041-3.5,3.727-4.892,5.9s-2.157,5.127-1.026,7.476a6.481,6.481,0,0,0,5.9,3.3,5.636,5.636,0,0,0,4.6-1.865,5.91,5.91,0,0,0,1.088-3.833c-.01-.276-.033-.552-.068-.825-.008-.062-.006-.123-.012-.185a19.5,19.5,0,0,0-2.053-3.442A41.078,41.078,0,0,0,353.388,261.249Z" transform="translate(-334.63 -168.681)" fill="#ff941e"/>
      <path id="Path_286" data-name="Path 286" d="M350.223,276.7a19.506,19.506,0,0,1,2.053,3.442,5.155,5.155,0,0,1,1.482-4.043,9.222,9.222,0,0,0,.908-1.1,30.387,30.387,0,0,0,4.314-7.865A41.079,41.079,0,0,1,350.223,276.7Z" transform="translate(-340.222 -174.567)" fill="#a86114"/>
      <path id="Path_287" data-name="Path 287" d="M371.818,317.515c1.585-1.918,2.91-3.89,3.146-5.344l-21.194-3.91c-.663,1.725-1.65,3.477-2.159,5.247C357.991,315.9,365.125,317.6,371.818,317.515Z" transform="translate(-340.72 -189.317)" fill="#1d253d"/>
      <g id="Group_161" data-name="Group 161" transform="translate(8.302 121.483)">
        <g id="Group_159" data-name="Group 159" transform="translate(18.667 84.382)">
          <path id="Path_288" data-name="Path 288" d="M377.779,443.909l4.4-.121c1.226,1.275,8.6,2.879,9.031,4.594H376.763A18.713,18.713,0,0,1,377.779,443.909Z" transform="translate(-376.71 -443.788)" fill="#fff"/>
          <path id="Path_289" data-name="Path 289" d="M391.176,450.951c.041.165.083.328.116.494a.421.421,0,0,1-.41.505H377.1a.418.418,0,0,1-.418-.448c.015-.184.033-.367.052-.552Z" transform="translate(-376.68 -446.357)" fill="#465a94"/>
        </g>
        <path id="Path_290" data-name="Path 290" d="M386.113,312.219c-6.381,2.388-9.334,1.458-16.027,1.372-.585,3.777,1.755,11.839,1.755,11.839l.271,5.9h16.353A73.692,73.692,0,0,0,386.113,312.219Z" transform="translate(-355.615 -312.219)" fill="#1d253d"/>
        <path id="Path_291" data-name="Path 291" d="M373.3,342.023l.188,2.8,15.991.183a18.14,18.14,0,0,0,.173-2.988Z" transform="translate(-356.8 -322.908)" fill="#006cb0"/>
        <g id="Group_160" data-name="Group 160" transform="translate(4.653 84.382)">
          <path id="Path_292" data-name="Path 292" d="M363.1,443.909l-4.4-.121c-1.226,1.275-3.251,2.879-3.679,4.594h9.091A18.713,18.713,0,0,0,363.1,443.909Z" transform="translate(-354.898 -443.788)" fill="#fff"/>
          <path id="Path_293" data-name="Path 293" d="M354.953,450.951c-.04.165-.083.328-.115.494a.421.421,0,0,0,.41.505h8.431a.419.419,0,0,0,.418-.448c-.015-.184-.033-.367-.052-.552Z" transform="translate(-354.829 -446.357)" fill="#465a94"/>
        </g>
        <path id="Path_294" data-name="Path 294" d="M364.124,326.945a70.129,70.129,0,0,0,6.289-6.495c-6.693.086-13.827-1.618-20.207-4.006a69.421,69.421,0,0,0-2.512,16.405h16.159Z" transform="translate(-347.618 -313.734)" fill="#465a94"/>
        <path id="Path_295" data-name="Path 295" d="M347.651,342.023a13.612,13.612,0,0,0,.012,2.988H363.81v-2.988Z" transform="translate(-347.575 -322.908)" fill="#0081c9"/>
      </g>
      <path id="Path_296" data-name="Path 296" d="M377.545,274.55c.026-7.842.852-14.209,1.167-22.048a2.333,2.333,0,0,0-.984-2.227c-11.208-5.721-19.489-1.084-21.313.239a2.731,2.731,0,0,0-.983,3.02c2.038,6.508,1.868,12.528.783,19.258-.847,5.257-6.508,11.433-5.084,18.219,9.024,4.042,19.837,3.642,29.732,1.756C383.49,288.056,377.528,278.829,377.545,274.55Z" transform="translate(-340.466 -167.52)" fill="#ff941e"/>
      <g id="Group_162" data-name="Group 162" transform="translate(23.808 70.211)">
        <path id="Path_297" data-name="Path 297" d="M371.751,232.276a71.642,71.642,0,0,1,.56,9.832,2.219,2.219,0,0,0,.627,1.654,3.837,3.837,0,0,0,3.64.986,1.763,1.763,0,0,0,.87-1.973c-.273-2.107-.455-4.113-.58-6.3A10.242,10.242,0,0,0,371.751,232.276Z" transform="translate(-371.751 -232.276)" fill="#ffc9b9"/>
        <path id="Path_298" data-name="Path 298" d="M376.868,236.47a10.242,10.242,0,0,0-5.117-4.194q.163,1.286.278,2.58c1.321,2.631,3.2,5.247,5.246,6.442C377.1,239.713,376.963,238.144,376.868,236.47Z" transform="translate(-371.751 -232.276)" fill="#ffab90"/>
      </g>
      <path id="Path_299" data-name="Path 299" d="M378.731,315.8a37.456,37.456,0,0,1-9.222,1.445,37.957,37.957,0,0,1-9.3-.861,37.428,37.428,0,0,1-5.065-1.5c-.249-.093-.375.3-.127.392a37.906,37.906,0,0,0,9.145,2.17,38.375,38.375,0,0,0,9.445-.137,37.437,37.437,0,0,0,5.212-1.108C379.076,316.126,378.987,315.724,378.731,315.8Z" transform="translate(-341.895 -191.686)" fill="#a86114"/>
      <g id="Group_164" data-name="Group 164" transform="translate(20.349 60.888)">
        <g id="Group_163" data-name="Group 163">
          <path id="Path_300" data-name="Path 300" d="M378.555,220.978c1.147,5.063-.169,10.956-1.5,11.163-4.429.686-7.374-3.452-7.4-3.5a2.5,2.5,0,0,1-1.025.486,1.908,1.908,0,0,1-1.282-.516c-.548-.5-1.186-1.342-.921-2.136a1.515,1.515,0,0,1,2.484-.566c1.348-2.615.182-3.975.126-5.877a11.408,11.408,0,0,1,7.873-2.254C377.377,217.809,378.45,220.511,378.555,220.978Z" transform="translate(-366.358 -217.74)" fill="#ffc9b9"/>
          <path id="Path_301" data-name="Path 301" d="M376.934,226.227a.409.409,0,0,0-.287-.175.341.341,0,0,0-.178,0l-.113.044a.452.452,0,0,0-.165.159l-.047.105a.444.444,0,0,0-.006.235l.011.047a.345.345,0,0,0,.079.159.405.405,0,0,0,.287.175.341.341,0,0,0,.178,0l.112-.044a.442.442,0,0,0,.165-.159l.047-.105a.451.451,0,0,0,.006-.235l-.012-.047A.341.341,0,0,0,376.934,226.227Z" transform="translate(-369.861 -220.717)" fill="#3b1411"/>
          <path id="Path_302" data-name="Path 302" d="M383.678,225.035a.405.405,0,0,0-.287-.175.341.341,0,0,0-.178,0l-.112.044a.442.442,0,0,0-.165.159l-.047.105a.451.451,0,0,0-.006.235l.012.047a.338.338,0,0,0,.078.159.409.409,0,0,0,.287.175.341.341,0,0,0,.178,0l.113-.044a.452.452,0,0,0,.165-.159l.047-.105a.444.444,0,0,0,.006-.235l-.012-.047A.341.341,0,0,0,383.678,225.035Z" transform="translate(-372.28 -220.29)" fill="#3b1411"/>
          <path id="Path_303" data-name="Path 303" d="M368.858,232.445a.288.288,0,0,1-.406-.1.266.266,0,0,1,.025-.231.26.26,0,0,1,.169-.145.182.182,0,0,0,.115-.262,1.1,1.1,0,0,0-1.261-.637.693.693,0,0,0-.465.517.5.5,0,0,0,.051.335c.031.06.152.2.222.1.042-.062.007-.13.01-.2a.651.651,0,0,1,.04-.21.378.378,0,0,1,.316-.234.727.727,0,0,1,.671.348.59.59,0,0,0-.168.746.621.621,0,0,0,.832.236C369.181,232.614,369.027,232.338,368.858,232.445Z" transform="translate(-366.598 -222.505)" fill="#ffab90"/>
        </g>
        <path id="Path_304" data-name="Path 304" d="M376.91,222.177a5.037,5.037,0,0,0-2.559.995c-.212.159.062.467.273.308a4.645,4.645,0,0,1,2.365-.9.208.208,0,0,0,.162-.242A.211.211,0,0,0,376.91,222.177Z" transform="translate(-369.198 -219.331)" fill="#6c301e"/>
        <path id="Path_305" data-name="Path 305" d="M383.85,222.047a1.894,1.894,0,0,0-1.685-.484.206.206,0,0,0,.08.4,1.709,1.709,0,0,1,.191-.03l.028,0h.028c.031,0,.061,0,.092,0a1.921,1.921,0,0,1,.192.017l.051.008.021,0,.036.008.049.013a1.493,1.493,0,0,1,.174.059c.028.011.056.024.084.036l.013.006,0,0,.045.024c.053.03.1.063.155.1.028.02.055.04.081.062l.024.02.028.026a.211.211,0,0,0,.29.018A.207.207,0,0,0,383.85,222.047Z" transform="translate(-371.968 -219.097)" fill="#6c301e"/>
        <path id="Path_306" data-name="Path 306" d="M381.726,236.187l-1.347.2a.208.208,0,0,0-.162.242.211.211,0,0,0,.242.162l1.347-.2a.208.208,0,0,0,.162-.242A.211.211,0,0,0,381.726,236.187Z" transform="translate(-371.327 -224.355)" fill="#ffab90"/>
        <path id="Path_307" data-name="Path 307" d="M382.631,229.473a1.571,1.571,0,0,0-.623-.5.9.9,0,0,1-.483-.434.207.207,0,0,0-.276-.092.211.211,0,0,0-.092.276c.167.459.671.541,1,.827a.343.343,0,0,1,.121.456c-.124.205-.357.324-.52.493a.211.211,0,0,0-.018.291.207.207,0,0,0,.291.018,3.8,3.8,0,0,0,.589-.573A.7.7,0,0,0,382.631,229.473Z" transform="translate(-371.66 -221.574)" fill="#ffab90"/>
        <path id="Path_308" data-name="Path 308" d="M381.143,234.325a.211.211,0,0,0-.276-.092,3.007,3.007,0,0,1-1.865.082.211.211,0,0,0-.262.126.209.209,0,0,0,.127.262,3.476,3.476,0,0,0,2.184-.1A.208.208,0,0,0,381.143,234.325Z" transform="translate(-370.795 -223.649)" fill="#3b1411"/>
      </g>
      <g id="Group_165" data-name="Group 165" transform="translate(17.612 111.895)">
        <path id="Path_309" data-name="Path 309" d="M366.018,298.066a9.475,9.475,0,0,1-3.849,6.188c-.216.153.065.456.278.3a9.875,9.875,0,0,0,3.983-6.473C366.471,297.823,366.059,297.807,366.018,298.066Z" transform="translate(-362.091 -297.488)" fill="#a86114"/>
        <path id="Path_310" data-name="Path 310" d="M381.005,297.27l-12.637.367c-.263.008-.283.419-.018.411l12.637-.367C381.25,297.673,381.27,297.262,381.005,297.27Z" transform="translate(-364.268 -297.27)" fill="#a86114"/>
        <path id="Path_311" data-name="Path 311" d="M390.581,302.477a5.588,5.588,0,0,1-2.406-5c.021-.264-.391-.282-.411-.018a6.005,6.005,0,0,0,2.594,5.364C390.578,302.972,390.8,302.625,390.581,302.477Z" transform="translate(-371.293 -297.27)" fill="#a86114"/>
      </g>
      <path id="Path_312" data-name="Path 312" d="M358.715,295.566,345.952,285.9a6.048,6.048,0,0,0-2.892,5.613l13.806,7.083A12.531,12.531,0,0,0,358.715,295.566Z" transform="translate(-337.651 -181.297)" fill="#ffc9b9"/>
      <path id="Path_313" data-name="Path 313" d="M345.74,285.657a6.32,6.32,0,0,0-3.527,6.408c.033.262.435.169.4-.092a5.9,5.9,0,0,1,3.318-5.952C346.173,285.911,345.981,285.546,345.74,285.657Z" transform="translate(-337.333 -181.203)" fill="#a86114"/>
      <path id="Path_314" data-name="Path 314" d="M348.446,284.8a4.013,4.013,0,0,0-4.516-1.135c-.246.1-.052.462.192.364a3.6,3.6,0,0,1,4.019,1.048C348.312,285.283,348.614,285,348.446,284.8Z" transform="translate(-337.925 -180.397)" fill="#a86114"/>
      <path id="Path_315" data-name="Path 315" d="M359.984,265.444c-.019-.262-.43-.282-.411-.018a61.284,61.284,0,0,1-.307,11.8c-.033.263.379.28.411.018A61.225,61.225,0,0,0,359.984,265.444Z" transform="translate(-343.465 -173.886)" fill="#a86114"/>
      <path id="Path_316" data-name="Path 316" d="M376.506,247.483c-.083-.249-.486-.16-.4.092a2.932,2.932,0,0,1-.747,2.658,5.371,5.371,0,0,1-.885,1.015.926.926,0,0,1-1.194-.02c-.362-.249-.682-.559-1.036-.82a12.351,12.351,0,0,0-1.156-.762,12.979,12.979,0,0,0-2.492-1.113c-.891-.292-2.074-.644-2.222-1.734-.035-.262-.437-.169-.4.092a2.538,2.538,0,0,0,1.9,1.837,17.376,17.376,0,0,1,2.95,1.24,12.426,12.426,0,0,1,1.3.865,8.033,8.033,0,0,0,1.2.9c.957.474,1.636-.339,2.178-1.022A3.532,3.532,0,0,0,376.506,247.483Z" transform="translate(-345.87 -167.218)" fill="#a86114"/>
      <path id="Path_317" data-name="Path 317" d="M371.795,255.788c-.087-.247-.489-.158-.4.092a16.325,16.325,0,0,1,.715,7.955c-.042.262.37.278.411.018A16.582,16.582,0,0,0,371.795,255.788Z" transform="translate(-347.811 -170.445)" fill="#fff"/>
      <path id="Path_318" data-name="Path 318" d="M383.029,254.867c-.079-.251-.482-.162-.4.092a18.02,18.02,0,0,1,.457,9.122c-.055.257.337.386.392.127A18.446,18.446,0,0,0,383.029,254.867Z" transform="translate(-351.84 -170.113)" fill="#fff"/>
      <path id="Path_319" data-name="Path 319" d="M356.5,408.961l-2.518-13.7c-.854-4.647-1.229-14.31-1.121-19.033l.115-4.992-4.084-24.554h14.568l-3.933,25.3.523,2.529c1.152,5.56,1.615,16.181,1.378,21.854l-.531,12.716Z" transform="translate(-339.746 -203.097)" fill="#ffc9b9"/>
      <path id="Path_320" data-name="Path 320" d="M389.931,346.583l-8.544,62.279h-4.4l-.745-16.834c-.214-4.838.5-14.614,2.093-19.187h0l-3.774-26.435Z" transform="translate(-348.952 -202.998)" fill="#ffc9b9"/>
      <path id="Path_321" data-name="Path 321" d="M363.463,346.682H348.895l.22,1.322h14.142Z" transform="translate(-339.746 -203.097)" fill="#ffab90"/>
      <path id="Path_322" data-name="Path 322" d="M359.652,372.722l3.728-23.978H349.238l3.864,23.232-.115,4.992c-.108,4.723.267,14.386,1.121,19.033l2.517,13.7,4.4.121.531-12.716c.237-5.673-.226-16.294-1.378-21.854Z" transform="translate(-339.869 -203.836)" fill="#ffc9b9"/>
      <path id="Path_323" data-name="Path 323" d="M389.931,346.584l-15.367-.177.214,1.5H389.75Z" transform="translate(-348.952 -202.998)" fill="#ffab90"/>
      <path id="Path_324" data-name="Path 324" d="M374.9,348.744l3.56,24.936h0c-1.6,4.573-2.306,14.348-2.093,19.187l.745,16.834h4.4l8.363-60.957Z" transform="translate(-349.072 -203.836)" fill="#ffc9b9"/>
      <path id="Path_325" data-name="Path 325" d="M414.1,202.264v-.037l2.5-4.686-2.687-2.04-2.658,1.017-.477,3.911a5.919,5.919,0,0,0-.256,1.624Z" transform="translate(-361.852 -148.876)" fill="#ffc9b9"/>
      <path id="Path_326" data-name="Path 326" d="M398.607,122.8l9.253,18.748,20.689,3.006-14.971,14.593,3.534,20.605-18.5-9.729-18.5,9.729,3.534-20.605-14.971-14.593,20.689-3.006Z" transform="translate(-346.837 -122.802)" fill="#feb12f"/>
      <path id="Path_327" data-name="Path 327" d="M376.934,154.847l-8.268,1.2,14.97,14.593L380.1,191.247l18.5-9.729,18.5,9.729-3-17.487C399.716,173.147,385.414,166.418,376.934,154.847Z" transform="translate(-346.837 -134.295)" fill="#fea30a"/>
      <g id="Group_166" data-name="Group 166" transform="translate(47.305 45.957)">
        <path id="Path_328" data-name="Path 328" d="M410.512,201.345a2.548,2.548,0,0,0,.92-2.116,2.424,2.424,0,0,0-1.024-2.024,2.993,2.993,0,0,0-2.02-2.746,32.662,32.662,0,0,1,1.374,7.221Z" transform="translate(-408.388 -194.459)" fill="#ffc9b9"/>
        <path id="Path_329" data-name="Path 329" d="M410.336,195.513c.366.19.49.743.57,1.222a2.444,2.444,0,0,0,.219.806c.135.233.355.339.529.505a2.178,2.178,0,0,1,.639,1.423,5.642,5.642,0,0,1-.282,1.889c-.053.2-.261.042-.208-.152a4.911,4.911,0,0,0,.248-1.791,1.817,1.817,0,0,0-.739-1.276,1.355,1.355,0,0,1-.41-.47,2.482,2.482,0,0,1-.19-.653c-.08-.444-.132-1.031-.486-1.215C410.084,195.728,410.2,195.44,410.336,195.513Z" transform="translate(-409.024 -194.833)" fill="#ffab90"/>
      </g>
      <path id="Path_330" data-name="Path 330" d="M375.734,217.525a6.205,6.205,0,0,1-1.508,1.158,3.128,3.128,0,0,0-1.292,1.292,5.613,5.613,0,0,0-.046,1.88,2.874,2.874,0,0,1-1.3,2.184,4.553,4.553,0,0,1-2.9.73c-.111-1.975-.192-4.06.985-5.8a6.783,6.783,0,0,1,3.57-2.5C374.505,216.06,377.188,215.714,375.734,217.525Z" transform="translate(-346.823 -156.278)" fill="#6c301e"/>
    </g>
    <g id="Group_188" data-name="Group 188" transform="translate(48.867 77.071)">
      <path id="Path_331" data-name="Path 331" d="M149.095,226.981c-.638.816-1.248,1.593-1.807,2.267-3.665.776-4.807,1.917-6.335,5.336l2.672,13.041c5.318-1.848,9.373-7.09,12.912-11.468q.454-.562.89-1.11a6.792,6.792,0,0,1-.841-.1A9.482,9.482,0,0,1,149.095,226.981Z" transform="translate(-95.407 -148.546)" fill="#465a94"/>
      <path id="Path_332" data-name="Path 332" d="M165.711,218.354c-.564-1.752-1.848-3.621-3.687-3.578a4.518,4.518,0,0,0-2.658,1.267,48.269,48.269,0,0,0-5.718,6.56,9.482,9.482,0,0,0,7.492,7.967,6.8,6.8,0,0,0,.841.1C165.076,226.758,167.287,223.254,165.711,218.354Z" transform="translate(-99.96 -144.168)" fill="#ffab91"/>
      <path id="Path_333" data-name="Path 333" d="M100.359,233.013a3.916,3.916,0,0,0-1.247-2.812,7.067,7.067,0,0,0-2.724-1.557,12.227,12.227,0,0,0-6.745-.178,132.792,132.792,0,0,1-11.281-8.595c-2.227,1.645-4.544,5.137-6.29,7.286,6.832,8.368,15.748,13.905,25.887,17.631Z" transform="translate(-70.703 -145.995)" fill="#ffab91"/>
      <path id="Path_334" data-name="Path 334" d="M106.013,236.429a3.916,3.916,0,0,0-1.247-2.812,7.062,7.062,0,0,0-2.724-1.557,12.225,12.225,0,0,0-6.744-.178c-1.186-.807-2.355-1.641-3.515-2.486a20.7,20.7,0,0,0-3.948,10.633,66.049,66.049,0,0,0,15.778,8.175Z" transform="translate(-76.356 -149.412)" fill="#465a94"/>
      <path id="Path_335" data-name="Path 335" d="M101.681,251.433c-4.516-3.519-8.846-7.3-13.22-10.966A28.347,28.347,0,0,0,87.835,244,64.576,64.576,0,0,0,101.681,251.433Z" transform="translate(-76.356 -153.383)" fill="#1d253d"/>
      <g id="Group_172" data-name="Group 172" transform="translate(9.508 133.537)">
        <g id="Group_171" data-name="Group 171">
          <g id="Group_168" data-name="Group 168" transform="translate(11.813)">
            <path id="Path_336" data-name="Path 336" d="M106.594,312.9c14.042,1.682,13.836,10.432,13.836,10.432l-5.671,36.467-4.051,31.775h-6.7A413.17,413.17,0,0,1,106.594,312.9Z" transform="translate(-103.182 -312.896)" fill="#a86114"/>
            <path id="Path_337" data-name="Path 337" d="M120.29,323.809s-6.247-4.358-6.979-8.171l23.448.908s3.921,49.248,3.821,76.007h-6.642Z" transform="translate(-106.815 -313.879)" fill="#ff941e"/>
            <path id="Path_338" data-name="Path 338" d="M151.831,435.565c0,1-.008,1.963-.019,2.892h-5.3l-.3-2.892Z" transform="translate(-118.616 -356.891)" fill="#ffab91"/>
            <path id="Path_339" data-name="Path 339" d="M110.913,435.565c0,1-.008,1.963-.019,2.892h-5.3l-.3-2.892Z" transform="translate(-103.941 -356.891)" fill="#ffab91"/>
            <path id="Path_340" data-name="Path 340" d="M115.2,318.487a9.939,9.939,0,0,1-2.606-4.37l23.7-1.22s.192,2.774.283,3.927A59.885,59.885,0,0,1,115.2,318.487Z" transform="translate(-106.558 -312.896)" fill="#a86114"/>
          </g>
          <g id="Group_169" data-name="Group 169" transform="translate(37.9 80.947)">
            <path id="Path_341" data-name="Path 341" d="M145.407,439.3l6.2-.185a16.158,16.158,0,0,1,3.564,7.059h-11.2A30.939,30.939,0,0,1,145.407,439.3Z" transform="translate(-143.899 -439.11)" fill="#465a94"/>
            <path id="Path_342" data-name="Path 342" d="M155.133,450.116c.058.252.117.5.163.759a.633.633,0,0,1-.577.776H144.449a.622.622,0,0,1-.59-.688c.021-.283.046-.566.073-.847Z" transform="translate(-143.857 -443.057)" fill="#a86114"/>
          </g>
          <g id="Group_170" data-name="Group 170" transform="translate(0 80.947)">
            <path id="Path_343" data-name="Path 343" d="M103.981,439.3l-6.2-.185c-1.729,1.959-12.139,4.423-12.742,7.059h20.378A30.9,30.9,0,0,0,103.981,439.3Z" transform="translate(-84.861 -439.11)" fill="#465a94"/>
            <path id="Path_344" data-name="Path 344" d="M84.938,450.116c-.058.252-.117.5-.164.759a.634.634,0,0,0,.578.776H104.8a.622.622,0,0,0,.59-.688c-.021-.283-.046-.566-.073-.847Z" transform="translate(-84.763 -443.057)" fill="#a86114"/>
          </g>
        </g>
        <path id="Path_345" data-name="Path 345" d="M147.294,385.041c.77-1.439,1.574-2.841,2.211-4.36a43.2,43.2,0,0,0,1.571-4.736c.057-.2.314-.114.28.085a23.061,23.061,0,0,1-1.463,4.835,20.506,20.506,0,0,1-2.326,4.406C147.442,385.441,147.2,385.222,147.294,385.041Z" transform="translate(-107.182 -335.468)" fill="#a86114"/>
      </g>
      <path id="Path_346" data-name="Path 346" d="M108.34,239.513a4.994,4.994,0,0,1,3.083-4.339,27.079,27.079,0,0,1,12.093-1.84,45.832,45.832,0,0,1,11.05,2.245,5.013,5.013,0,0,1,3.4,5.575,217.9,217.9,0,0,0-2.565,42.431c.036.917.121,2.238-.755,2.512-8.064,2.515-19.56,2.93-27.234.886-1.9-.507-.4-2.262-.409-4.232C106.963,268.654,107.614,253.463,108.34,239.513Z" transform="translate(-83.031 -150.801)" fill="#465a94"/>
      <g id="Group_177" data-name="Group 177" transform="translate(30.204 60.96)">
        <g id="Group_176" data-name="Group 176">
          <g id="Group_173" data-name="Group 173" transform="translate(5.906 12.62)">
            <path id="Path_347" data-name="Path 347" d="M133.167,219.411a46.858,46.858,0,0,0,.216,9.43,1.716,1.716,0,0,1-.711,1.623,7.031,7.031,0,0,1-5,1.194,1.7,1.7,0,0,1-1.421-1.825,56.086,56.086,0,0,0,.171-6.061A13.605,13.605,0,0,1,133.167,219.411Z" transform="translate(-126.241 -219.411)" fill="#ffab91"/>
          </g>
          <g id="Group_174" data-name="Group 174" transform="translate(5.906 12.62)">
            <path id="Path_348" data-name="Path 348" d="M126.417,223.772a13.605,13.605,0,0,1,6.75-4.361c-.1,1.339-.148,2.681-.137,4.024-1.2,3.273-3.361,6.394-6.279,7.755a1.713,1.713,0,0,1-.5-1.357A56.084,56.084,0,0,0,126.417,223.772Z" transform="translate(-126.241 -219.411)" fill="#ff8a65"/>
          </g>
          <path id="Path_349" data-name="Path 349" d="M130.469,211.578l1.089-4.093a4.907,4.907,0,0,0,.238-2.18,1.677,1.677,0,0,0-1.463-1.428,9.582,9.582,0,0,0-8.944-4.078,5.1,5.1,0,0,0-3.207,1.431,5.622,5.622,0,0,0-1.151,3.879c.012,1.645.748,1.822,1.875,3.021,1.074,1.142,2.281,3.169,3.825,3.433A23.536,23.536,0,0,0,130.469,211.578Z" transform="translate(-117.032 -199.734)" fill="#3e2410"/>
          <path id="Path_350" data-name="Path 350" d="M130.591,212.2q.494-1.866.986-3.733a4.5,4.5,0,0,0,.215-1.988,1.524,1.524,0,0,0-1.324-1.3,8.65,8.65,0,0,0-8.1-3.719,4.6,4.6,0,0,0-2.9,1.3,5.153,5.153,0,0,0-1.042,3.537c.01,1.5.677,1.662,1.7,2.755.972,1.041,2.065,2.889,3.464,3.13A21.153,21.153,0,0,0,130.591,212.2Z" transform="translate(-117.531 -200.333)" fill="#170d05"/>
          <g id="Group_175" data-name="Group 175" transform="translate(1.609 4.493)">
            <path id="Path_351" data-name="Path 351" d="M119.652,209.747c-.585,4.384,1.219,12.147,3.642,12.235,5.173.187,6.281-3.062,7.148-6.252a.95.95,0,0,0,.736.239,1.829,1.829,0,0,0,1.077-.77,2.162,2.162,0,0,0,.373-2.2,1.182,1.182,0,0,0-2.127-.024,12.377,12.377,0,0,0-1.044-4.584,1.706,1.706,0,0,0-1.027-1.022,12.371,12.371,0,0,0-7.474-.108,1.463,1.463,0,0,0-.952.961A10.189,10.189,0,0,0,119.652,209.747Z" transform="translate(-119.541 -206.74)" fill="#ffab91"/>
            <path id="Path_352" data-name="Path 352" d="M128.674,220.344a10.745,10.745,0,0,0-7.748.825c.682,2.357,1.7,4.169,2.864,4.211,4.932.179,6.168-2.767,7.025-5.806l.337-3.361Z" transform="translate(-120.038 -210.137)" fill="#170d05" opacity="0.37" style="mix-blend-mode: multiply;isolation: isolate"/>
            <path id="Path_353" data-name="Path 353" d="M138.655,216.126a1.222,1.222,0,0,0-1.84-.406l-.131.218-.337,3.361q.063-.222.123-.446a.95.95,0,0,0,.736.239,1.829,1.829,0,0,0,1.077-.77A2.162,2.162,0,0,0,138.655,216.126Z" transform="translate(-125.568 -209.863)" fill="#ffab91"/>
            <path id="Path_354" data-name="Path 354" d="M130.5,212.978a12.376,12.376,0,0,0-1.044-4.584,1.706,1.706,0,0,0-1.027-1.022,12.372,12.372,0,0,0-7.474-.108,1.463,1.463,0,0,0-.952.961,10.189,10.189,0,0,0-.353,1.521,21.577,21.577,0,0,0,.777,8.024,10.745,10.745,0,0,1,7.748-.825l2.479-4.132.009-.084A1.308,1.308,0,0,0,130.5,212.978Z" transform="translate(-119.541 -206.74)" fill="#ffab91"/>
            <path id="Path_355" data-name="Path 355" d="M136.881,216.006l-.009.084.131-.218A1.175,1.175,0,0,0,136.881,216.006Z" transform="translate(-125.757 -210.015)" fill="#ffab91"/>
            <path id="Path_356" data-name="Path 356" d="M126.985,211.6c.706-.9,2.647-.278,3.362.3.13.105.288.24.272.426a.223.223,0,0,1-.158.207c-.219.063-.428-.119-.611-.215a3.092,3.092,0,0,0-1.769-.339,3.8,3.8,0,0,1-.961.137C126.865,212.078,126.861,211.76,126.985,211.6Z" transform="translate(-122.182 -208.322)" fill="#170d05"/>
            <path id="Path_357" data-name="Path 357" d="M128.618,214.156a.327.327,0,0,1,.089-.139.321.321,0,0,1,.139-.089.329.329,0,0,1,.166-.037l.115.015a.435.435,0,0,1,.19.111l.067.087a.426.426,0,0,1,.059.217v.046a.329.329,0,0,1-.037.166.389.389,0,0,1-.228.228.328.328,0,0,1-.166.037l-.114-.015a.434.434,0,0,1-.19-.111l-.067-.087a.432.432,0,0,1-.059-.217v-.046A.329.329,0,0,1,128.618,214.156Z" transform="translate(-122.783 -209.305)" fill="#3b1411"/>
            <path id="Path_358" data-name="Path 358" d="M121.265,214.572a.443.443,0,0,1,.394-.265l.115.015a.436.436,0,0,1,.19.111l.067.087a.432.432,0,0,1,.059.217v.046a.328.328,0,0,1-.037.166.443.443,0,0,1-.394.265l-.115-.015a.429.429,0,0,1-.19-.111l-.067-.087a.431.431,0,0,1-.059-.217v-.046A.329.329,0,0,1,121.265,214.572Z" transform="translate(-120.146 -209.454)" fill="#3b1411"/>
            <path id="Path_359" data-name="Path 359" d="M119.913,212.456a1.3,1.3,0,0,1,.872-.582,2.031,2.031,0,0,1,1.02-.019.322.322,0,0,1,.231.354c-.035.262-.257.271-.465.274a2.091,2.091,0,0,0-.806.149c-.174.074-1.088.531-.9-.047A.921.921,0,0,1,119.913,212.456Z" transform="translate(-119.647 -208.554)" fill="#170d05"/>
            <path id="Path_360" data-name="Path 360" d="M137.08,218.147a.275.275,0,0,0,.357-.18.258.258,0,0,0-.076-.21.249.249,0,0,0-.189-.1.174.174,0,0,1-.166-.218,1.057,1.057,0,0,1,1.029-.879.665.665,0,0,1,.55.376.48.48,0,0,1,.028.323c-.016.062-.095.224-.183.144-.053-.048-.037-.119-.054-.181a.622.622,0,0,0-.085-.185.363.363,0,0,0-.348-.146.7.7,0,0,0-.545.475.565.565,0,0,1,.325.657.594.594,0,0,1-.722.407C136.818,218.377,136.9,218.086,137.08,218.147Z" transform="translate(-125.766 -210.262)" fill="#ff8a65"/>
          </g>
        </g>
      </g>
      <path id="Path_361" data-name="Path 361" d="M116.938,306.28a19.442,19.442,0,0,0,9.795-1.653,19.3,19.3,0,0,0,9.763-10.122c.1-.231.439-.049.344.181a19.789,19.789,0,0,1-5.466,7.453,19.535,19.535,0,0,1-8.822,4.232,19.833,19.833,0,0,1-5.7.287C116.6,306.635,116.693,306.256,116.938,306.28Z" transform="translate(-86.71 -172.725)" fill="#1d253d"/>
      <path id="Path_362" data-name="Path 362" d="M126.592,238.589a8.094,8.094,0,0,0,7.656-1.848c.181-.171.469.091.287.262a8.492,8.492,0,0,1-8.03,1.964C126.266,238.9,126.35,238.521,126.592,238.589Z" transform="translate(-90.174 -152.026)" fill="#1d253d"/>
      <path id="Path_363" data-name="Path 363" d="M122.592,216.905a2.72,2.72,0,0,0,.726-1.19c.042-.246.421-.16.378.087-.144.834-.958,1.268-1.238,2.029a1.188,1.188,0,0,0,1.508,1.539.194.194,0,0,1,.12.369A1.592,1.592,0,0,1,122,218.17,2.2,2.2,0,0,1,122.592,216.905Z" transform="translate(-88.609 -144.452)" fill="#ff8a65"/>
      <path id="Path_364" data-name="Path 364" d="M127.693,223.808a3.26,3.26,0,0,1-3.181,1.213c-.257-.053-.386.339-.127.392a3.688,3.688,0,0,0,3.654-1.382C128.2,223.819,127.851,223.6,127.693,223.808Z" transform="translate(-89.414 -147.377)" fill="#3b1411"/>
      <g id="Group_178" data-name="Group 178" transform="translate(2.679)">
        <path id="Path_365" data-name="Path 365" d="M104.056,104.684l9.252,18.748L134,126.438l-14.971,14.593,3.534,20.605-18.5-9.729-18.5,9.729,3.534-20.605L74.114,126.438,94.8,123.432Z" transform="translate(-74.114 -104.684)" fill="#feb12f"/>
        <path id="Path_366" data-name="Path 366" d="M82.383,136.73l-8.269,1.2,14.971,14.593L85.551,173.13l18.506-9.729,18.5,9.729-3-17.487C105.164,155.029,90.862,148.3,82.383,136.73Z" transform="translate(-74.114 -116.177)" fill="#fea30a"/>
      </g>
      <g id="Group_180" data-name="Group 180" transform="translate(0 48.773)">
        <g id="Group_179" data-name="Group 179" transform="translate(11.409)">
          <path id="Path_367" data-name="Path 367" d="M97.2,180.756a1.849,1.849,0,0,1,.737.024.69.69,0,0,1,.5.5.723.723,0,0,1-.432.715,2.736,2.736,0,0,1-.867.2,6.011,6.011,0,0,0-2.785,1.186,10.691,10.691,0,0,1-1.251.958c-1.585.89-2.825-.82-1.174-1.835A12.962,12.962,0,0,1,97.2,180.756Z" transform="translate(-88.952 -180.731)" fill="#ffab91"/>
          <path id="Path_368" data-name="Path 368" d="M98.668,183.143a1.848,1.848,0,0,1,.737.024.688.688,0,0,1,.5.5.722.722,0,0,1-.432.715,2.77,2.77,0,0,1-.867.2,6.01,6.01,0,0,0-2.785,1.186,10.821,10.821,0,0,1-1.251.959c-1.585.889-2.825-.82-1.174-1.835A12.94,12.94,0,0,1,98.668,183.143Z" transform="translate(-89.48 -181.587)" fill="#ffab91"/>
          <path id="Path_369" data-name="Path 369" d="M98.231,185.837a1.838,1.838,0,0,1,.737.024.689.689,0,0,1,.5.5.724.724,0,0,1-.432.715,2.775,2.775,0,0,1-.867.2,6.01,6.01,0,0,0-2.785,1.186,10.683,10.683,0,0,1-1.251.958c-1.585.89-2.824-.819-1.174-1.834A12.937,12.937,0,0,1,98.231,185.837Z" transform="translate(-89.323 -182.553)" fill="#ffab91"/>
          <path id="Path_370" data-name="Path 370" d="M97.565,188.591a1.505,1.505,0,0,1,.6.019.563.563,0,0,1,.408.407.592.592,0,0,1-.353.584,2.273,2.273,0,0,1-.708.165,4.9,4.9,0,0,0-2.274.968,8.8,8.8,0,0,1-1.022.782c-1.294.726-2.306-.67-.958-1.5A10.571,10.571,0,0,1,97.565,188.591Z" transform="translate(-89.482 -183.543)" fill="#ffab91"/>
          <path id="Path_371" data-name="Path 371" d="M90.505,183.494a9.139,9.139,0,0,0-1.945,2.184,4.352,4.352,0,0,0-.761,3.24,2.682,2.682,0,0,0,2.329,2.161,2.983,2.983,0,0,0,1.882-.666,4.6,4.6,0,0,0,.085-7.3Z" transform="translate(-87.727 -181.585)" fill="#ffab91"/>
        </g>
        <path id="Path_372" data-name="Path 372" d="M82.542,188.571c-2.565,3.089-12.545,18.712-12.6,22.674a7.446,7.446,0,0,0,2.267,5.69,3.067,3.067,0,0,0,5.033-.869c2.113-3.682,6.3-19.967,7.3-24.962Z" transform="translate(-69.938 -183.543)" fill="#ffab91"/>
      </g>
      <g id="Group_182" data-name="Group 182" transform="translate(43.64 47.246)">
        <g id="Group_181" data-name="Group 181">
          <path id="Path_373" data-name="Path 373" d="M140.7,178.375a1.849,1.849,0,0,0-.737.024.69.69,0,0,0-.5.5.723.723,0,0,0,.432.715,2.771,2.771,0,0,0,.867.2A6.01,6.01,0,0,1,143.543,181a10.7,10.7,0,0,0,1.251.959c1.585.889,2.825-.82,1.174-1.835A12.952,12.952,0,0,0,140.7,178.375Z" transform="translate(-138.509 -178.35)" fill="#ffab91"/>
          <path id="Path_374" data-name="Path 374" d="M139.225,180.762a1.836,1.836,0,0,0-.737.024.688.688,0,0,0-.5.5.722.722,0,0,0,.432.715,2.77,2.77,0,0,0,.867.2,6,6,0,0,1,2.785,1.186,10.744,10.744,0,0,0,1.251.958c1.585.89,2.825-.82,1.174-1.834A12.94,12.94,0,0,0,139.225,180.762Z" transform="translate(-137.982 -179.206)" fill="#ffab91"/>
          <path id="Path_375" data-name="Path 375" d="M139.663,183.456a1.838,1.838,0,0,0-.737.024.689.689,0,0,0-.5.5.724.724,0,0,0,.432.715,2.774,2.774,0,0,0,.867.2,6,6,0,0,1,2.785,1.186,10.641,10.641,0,0,0,1.251.958c1.585.89,2.824-.82,1.173-1.834A12.937,12.937,0,0,0,139.663,183.456Z" transform="translate(-138.139 -180.172)" fill="#ffab91"/>
          <path id="Path_376" data-name="Path 376" d="M141.078,186.21a1.506,1.506,0,0,0-.6.019.563.563,0,0,0-.408.407.591.591,0,0,0,.353.584,2.257,2.257,0,0,0,.708.166,4.9,4.9,0,0,1,2.274.968,8.729,8.729,0,0,0,1.022.782c1.294.727,2.306-.669.958-1.5A10.561,10.561,0,0,0,141.078,186.21Z" transform="translate(-138.728 -181.162)" fill="#ffab91"/>
          <path id="Path_377" data-name="Path 377" d="M148.044,181.113a9.148,9.148,0,0,1,1.945,2.184,4.355,4.355,0,0,1,.761,3.241,2.681,2.681,0,0,1-2.329,2.161,2.978,2.978,0,0,1-1.882-.665,4.6,4.6,0,0,1-.085-7.3Z" transform="translate(-140.39 -179.204)" fill="#ffab91"/>
        </g>
        <path id="Path_378" data-name="Path 378" d="M151.27,186.189c2.565,3.089,12.545,18.713,12.6,22.674a7.448,7.448,0,0,1-2.267,5.69,3.067,3.067,0,0,1-5.033-.869c-2.112-3.682-6.3-19.967-7.3-24.962Z" transform="translate(-142.032 -181.161)" fill="#ffab91"/>
      </g>
      <path id="Path_379" data-name="Path 379" d="M160.33,239.861l-7.544,8.918-2.16,2.553c-.169.2.107.506.278.3l7.544-8.918,2.16-2.553C160.777,239.965,160.5,239.659,160.33,239.861Z" transform="translate(-98.857 -153.141)" fill="#1d253d"/>
      <path id="Path_380" data-name="Path 380" d="M108.111,242.308q-.337,5.216-.552,10.439-.215,5.248-.3,10.5-.05,2.946-.061,5.892c0,.264.41.284.412.019q.019-5.227.162-10.452.144-5.251.413-10.5.151-2.943.342-5.883A.206.206,0,0,0,108.111,242.308Z" transform="translate(-83.3 -153.975)" fill="#1d253d"/>
      <g id="Group_187" data-name="Group 187" transform="translate(30.558 69.132)">
        <g id="Group_183" data-name="Group 183">
          <path id="Path_381" data-name="Path 381" d="M119.606,216.519a2.022,2.022,0,1,1,2.022-2.022A2.024,2.024,0,0,1,119.606,216.519Zm0-3.837a1.816,1.816,0,1,0,1.816,1.816A1.818,1.818,0,0,0,119.606,212.682Z" transform="translate(-117.584 -212.476)" fill="#170d05"/>
        </g>
        <g id="Group_184" data-name="Group 184" transform="translate(4.946)">
          <path id="Path_382" data-name="Path 382" d="M127.318,216.519a2.022,2.022,0,1,1,2.022-2.022A2.024,2.024,0,0,1,127.318,216.519Zm0-3.837a1.816,1.816,0,1,0,1.816,1.816A1.818,1.818,0,0,0,127.318,212.682Z" transform="translate(-125.296 -212.476)" fill="#170d05"/>
        </g>
        <g id="Group_185" data-name="Group 185" transform="translate(3.827 0.971)">
          <path id="Path_383" data-name="Path 383" d="M123.693,214.414l-.142-.149a1.048,1.048,0,0,1,1.348-.056l-.13.16A.848.848,0,0,0,123.693,214.414Z" transform="translate(-123.551 -213.99)" fill="#170d05"/>
        </g>
        <g id="Group_186" data-name="Group 186" transform="translate(8.816 1.305)">
          <path id="Path_384" data-name="Path 384" d="M135.325,215.231a7.932,7.932,0,0,0-3.965-.428l-.029-.2a8.141,8.141,0,0,1,4.068.44Z" transform="translate(-131.33 -214.511)" fill="#170d05"/>
        </g>
      </g>
    </g>
    <rect id="Rectangle_621" data-name="Rectangle 621" width="369.005" height="1.542" transform="translate(24.206 300.149)" fill="#001e4a"/>
  </g>
</svg>
