<svg xmlns="http://www.w3.org/2000/svg" width="28.5" height="28.5" viewBox="0 0 28.5 28.5"><defs><style>.a{fill:#5c5f62;}</style></defs><circle class="a" cx="0.954" cy="0.954" r="0.954" transform="translate(13.296 18.356)"/><circle class="a" cx="0.954" cy="0.954" r="0.954" transform="translate(13.296 8.237)"/><path class="a" d="M27.732.769A2.6,2.6,0,0,0,25.876,0H15.885A2.607,2.607,0,0,0,14.03.769L.769,14.03a2.623,2.623,0,0,0,0,3.71l9.991,9.991a2.623,2.623,0,0,0,3.711,0L27.731,14.47a2.607,2.607,0,0,0,.769-1.855V2.624A2.6,2.6,0,0,0,27.732.769ZM14.25,6.567a2.624,2.624,0,1,1-2.624,2.624A2.627,2.627,0,0,1,14.25,6.567Zm0,15.366a2.624,2.624,0,1,1,2.624-2.624A2.627,2.627,0,0,1,14.25,21.933Zm5.366-6.848H8.884a.835.835,0,0,1,0-1.67H19.616a.835.835,0,0,1,0,1.67Zm3.577-8.943a.835.835,0,1,1,.835-.835A.835.835,0,0,1,23.193,6.142Z"/></svg>